<?xml version="1.0" encoding="UTF-8"?>
<svg width="798px" height="798px" viewBox="0 0 798 798" version="1.1" xmlns="http://www.w3.org/2000/svg" xmlns:xlink="http://www.w3.org/1999/xlink">
    <!-- Generator: Sketch 53.2 (72643) - https://sketchapp.com -->
    <title>rings</title>
    <desc>Created with Sketch.</desc>
    <g id="Page-1" stroke="none" stroke-width="1" fill="none" fill-rule="evenodd">
        <g id="iBec-Test-Project" transform="translate(-1548.000000, -369.000000)" fill="#F0485D" fill-rule="nonzero">
            <g id="rings" transform="translate(1548.000000, 369.000000)">
                <path d="M399,554 C484.604136,554 554,484.604136 554,399 C554,313.395864 484.604136,244 399,244 C313.395864,244 244,313.395864 244,399 C244,484.604136 313.395864,554 399,554 Z M399,556 C312.291294,556 242,485.708706 242,399 C242,312.291294 312.291294,242 399,242 C485.708706,242 556,312.291294 556,399 C556,485.708706 485.708706,556 399,556 Z" id="Oval"></path>
                <path d="M399,567 C491.783838,567 567,491.783838 567,399 C567,306.216162 491.783838,231 399,231 C306.216162,231 231,306.216162 231,399 C231,491.783838 306.216162,567 399,567 Z M399,569 C305.111593,569 229,492.888407 229,399 C229,305.111593 305.111593,229 399,229 C492.888407,229 569,305.111593 569,399 C569,492.888407 492.888407,569 399,569 Z" id="Oval" opacity="0.7"></path>
                <path d="M399,587 C502.829533,587 587,502.829533 587,399 C587,295.170467 502.829533,211 399,211 C295.170467,211 211,295.170467 211,399 C211,502.829533 295.170467,587 399,587 Z M399,589 C294.065898,589 209,503.934102 209,399 C209,294.065898 294.065898,209 399,209 C503.934102,209 589,294.065898 589,399 C589,503.934102 503.934102,589 399,589 Z" id="Oval" opacity="0.5"></path>
                <path d="M399,620 C521.05493,620 620,521.05493 620,399 C620,276.94507 521.05493,178 399,178 C276.94507,178 178,276.94507 178,399 C178,521.05493 276.94507,620 399,620 Z M399,622 C275.840501,622 176,522.159499 176,399 C176,275.840501 275.840501,176 399,176 C522.159499,176 622,275.840501 622,399 C622,522.159499 522.159499,622 399,622 Z" id="Oval" opacity="0.3"></path>
                <path d="M399,676 C551.982876,676 676,551.982876 676,399 C676,246.017124 551.982876,122 399,122 C246.017124,122 122,246.017124 122,399 C122,551.982876 246.017124,676 399,676 Z M399,678 C244.912555,678 120,553.087445 120,399 C120,244.912555 244.912555,120 399,120 C553.087445,120 678,244.912555 678,399 C678,553.087445 553.087445,678 399,678 Z" id="Oval" opacity="0.1"></path>
                <path d="M399,796 C618.257046,796 796,618.257046 796,399 C796,179.742954 618.257046,2 399,2 C179.742954,2 2,179.742954 2,399 C2,618.257046 179.742954,796 399,796 Z M399,798 C178.638385,798 0,619.361615 0,399 C0,178.638385 178.638385,0 399,0 C619.361615,0 798,178.638385 798,399 C798,619.361615 619.361615,798 399,798 Z" id="Oval" opacity="0.1"></path>
            </g>
        </g>
    </g>
</svg>